<svg width="194" height="194" viewBox="0 0 194 194" fill="none" xmlns="http://www.w3.org/2000/svg">
<path d="M97 194C150.572 194 194 150.572 194 97C194 43.4284 150.572 0 97 0C43.4284 0 0 43.4284 0 97C0 150.572 43.4284 194 97 194Z" fill="#FBC036"/>
<path d="M38.6444 86.928H38.8008C42.0951 82.7683 45.7857 80.8848 50.2581 80.8848C56.8503 80.8848 63.5226 84.8845 63.5226 94.702V117.777H52.1452V97.1091C52.1452 91.6949 49.789 89.1824 46.2584 89.1824C43.5895 89.1824 41.3169 90.8332 38.6481 94.6765V117.751H27.2671V64.2243H38.6481L38.6444 86.928Z" fill="#434C4F"/>
<path d="M82.5173 117.751H71.14V81.5721H82.5173V117.751ZM83.0664 69.7984C83.0671 71.0405 82.6994 72.255 82.0099 73.2881C81.3203 74.3213 80.3398 75.1267 79.1924 75.6025C78.0451 76.0784 76.7824 76.2033 75.564 75.9614C74.3457 75.7195 73.2264 75.1217 72.3478 74.2436C71.4693 73.3656 70.8708 72.2467 70.6283 71.0285C70.3857 69.8103 70.5098 68.5475 70.985 67.3998C71.4602 66.2522 72.265 65.2712 73.2978 64.5811C74.3305 63.8909 75.5447 63.5225 76.7869 63.5225C78.4502 63.5273 80.0441 64.1899 81.2206 65.3658C82.3971 66.5416 83.0606 68.1351 83.0664 69.7984Z" fill="#434C4F"/>
<path d="M115.18 112.573C111.544 116.744 108.025 118.457 103.472 118.457C96.3309 118.457 90.2078 114.061 90.2078 104.723V81.5721H101.589V103.941C101.589 109.032 104.334 110.85 107.319 110.85C110.77 110.85 113.908 108.181 115.09 104.65V81.5721H126.547V117.751H115.18V112.573Z" fill="white"/>
<path d="M145.145 108.494C147.422 110.141 149.465 110.85 151.741 110.85C157.312 110.85 160.766 106.61 160.766 99.8616C160.766 92.953 157.628 88.9533 152.21 88.9533C149.778 88.9533 147.974 89.6587 145.145 91.8622V108.494ZM145.145 84.7137C148.363 82.0484 151.581 80.8667 155.505 80.8667C164.926 80.8667 172.3 88.8661 172.3 99.2326C172.3 110.846 165.238 118.46 154.483 118.46C151.205 118.437 147.989 117.572 145.142 115.948V135.804H133.768V81.5721H145.145V84.7137Z" fill="white"/>
</svg>
